<?xml version="1.0" standalone="no"?>
<!DOCTYPE svg PUBLIC "-//W3C//DTD SVG 20010904//EN"
 "http://www.w3.org/TR/2001/REC-SVG-20010904/DTD/svg10.dtd">
<svg version="1.0" xmlns="http://www.w3.org/2000/svg"
 width="399.000000pt" height="399.000000pt" viewBox="0 0 399.000000 399.000000"
 preserveAspectRatio="xMidYMid meet">
<metadata>
Created by potrace 1.14, written by Peter Selinger 2001-2017
</metadata>
<g transform="translate(0.000000,399.000000) scale(0.100000,-0.100000)"
fill="#000000" stroke="none">
<path d="M7 3983 c-4 -3 -7 -262 -6 -575 l0 -568 81 -128 c93 -145 135 -211
195 -303 37 -56 40 -65 25 -71 -14 -5 -13 -7 6 -7 23 -1 23 0 26 -91 1 -34 0
-35 -41 -38 -34 -3 -42 0 -48 17 -9 28 -21 26 -29 -4 -4 -17 -13 -25 -29 -25
-12 0 -32 -3 -44 -6 -17 -5 -22 -1 -25 18 -4 31 -43 33 -43 1 0 -26 -13 -41
-19 -22 -2 8 -7 37 -10 64 l-6 50 58 1 c87 2 156 14 144 26 -6 6 -43 6 -108
-2 -55 -6 -107 -12 -116 -13 -12 -1 -16 -8 -13 -27 5 -33 13 -290 22 -677 6
-287 5 -313 -10 -313 -15 0 -17 -13 -17 -85 0 -59 4 -85 12 -85 9 0 9 -3 0
-12 -33 -33 -1 -23 107 33 l118 62 97 -48 c84 -42 124 -72 303 -229 114 -100
223 -194 242 -210 65 -53 151 -140 151 -153 0 -14 -27 -32 -170 -115 -112 -65
-718 -423 -740 -437 -20 -13 60 -14 152 -2 40 5 84 5 109 0 55 -13 62 -4 10
12 -23 7 -41 15 -41 18 1 33 56 52 155 56 44 2 103 7 132 11 l52 7 59 -57 c32
-31 62 -56 66 -56 5 0 21 11 38 25 38 32 71 32 92 0 l16 -25 713 0 712 0 18
49 c20 57 21 80 5 118 -6 15 -10 34 -9 41 1 6 -4 12 -11 12 -19 0 -102 86 -94
98 3 6 -1 8 -11 6 -29 -8 -117 77 -143 138 -41 95 -13 254 61 347 22 28 60 62
82 75 37 21 67 30 175 52 33 7 28 -17 -18 -94 -22 -36 -44 -81 -49 -99 -5 -18
-32 -67 -60 -108 -29 -41 -48 -75 -44 -75 5 0 24 24 43 52 19 29 59 84 87 122
60 81 113 176 113 201 0 17 10 18 128 12 113 -6 196 -17 208 -29 2 -2 8 -74
13 -159 l9 -154 0 135 c1 74 1 145 1 156 1 20 5 21 34 14 104 -26 216 -104
307 -215 57 -69 120 -180 120 -210 0 -8 5 -15 10 -15 43 0 -60 175 -166 285
-80 82 -160 136 -238 161 -172 54 -437 62 -593 18 -29 -9 -65 -14 -80 -12 -24
3 -20 6 31 26 41 16 96 26 185 32 349 27 503 0 621 -110 69 -64 92 -69 31 -7
-29 30 -75 67 -102 82 -52 28 -160 55 -222 55 -31 0 -45 7 -68 31 -16 17 -27
35 -24 39 7 11 106 40 135 40 13 0 20 5 18 13 -3 7 -34 15 -75 20 l-70 9 -7
51 c-11 97 -17 91 77 83 97 -7 164 -24 242 -60 66 -30 72 -31 56 -12 -29 34
-180 78 -315 90 -33 3 -61 8 -63 10 -3 2 -7 32 -10 65 l-6 61 124 0 c204 0
396 -50 589 -153 109 -58 120 -66 218 -154 65 -59 72 -70 72 -103 0 -35 34
-155 50 -175 14 -19 63 -310 64 -385 0 -50 -7 -101 -22 -155 -12 -44 -31 -123
-42 -175 -11 -52 -23 -105 -26 -118 -6 -21 -4 -23 22 -20 28 3 30 6 56 112 14
60 35 130 46 155 11 25 24 55 27 66 6 17 11 13 28 -25 31 -68 25 -147 -15
-229 -18 -37 -34 -69 -36 -74 -2 -4 24 -7 57 -7 l61 0 0 548 c-1 465 -3 550
-15 566 -19 25 -19 31 1 50 10 11 11 16 3 16 -31 0 -49 62 -29 101 8 15 6 25
-10 47 -17 23 -35 102 -23 102 2 0 16 -11 31 -25 34 -31 42 -31 42 0 0 20 -5
25 -24 25 -15 0 -33 12 -51 35 -55 72 -56 332 -3 535 11 41 22 86 24 100 l4
25 -11 -25 c-17 -38 -25 -60 -43 -123 -15 -49 -20 -57 -41 -57 -28 0 -33 -13
-39 -97 -2 -29 1 -53 6 -53 5 0 17 -8 27 -17 15 -15 20 -38 24 -128 2 -60 8
-119 12 -129 6 -14 5 -17 -3 -12 -16 10 -15 -3 3 -38 11 -21 12 -32 5 -42 -8
-9 -7 -15 3 -21 8 -4 17 -21 21 -38 5 -22 4 -26 -4 -15 -5 8 -10 11 -10 5 0
-11 -110 184 -110 195 0 4 -9 19 -20 33 -46 58 -72 128 -80 215 -8 78 -7 90
11 114 10 15 19 32 19 38 0 5 7 10 15 10 13 0 13 4 3 22 -7 13 -21 29 -31 36
-20 15 -22 41 -6 76 12 27 53 41 102 37 30 -3 36 13 10 28 -17 10 -17 10 0 11
10 0 17 8 17 19 0 11 5 23 10 26 18 11 11 47 -10 52 -11 3 -18 9 -15 13 9 14
-7 40 -24 40 -22 0 -63 29 -56 40 3 4 -1 10 -7 13 -7 2 -10 7 -6 11 3 4 17 3
30 -4 20 -10 21 -9 6 3 -15 12 -2 20 113 77 71 36 129 68 129 72 0 12 3 13
-141 -63 -108 -56 -146 -72 -193 -76 -44 -5 -87 -20 -173 -63 -94 -47 -115
-55 -125 -43 -16 19 -9 24 119 88 105 53 115 55 163 49 60 -8 84 1 242 90
l108 61 0 718 0 717 -105 0 c-102 0 -105 -1 -106 -22 l0 -23 -9 23 c-12 29
-45 29 -89 -1 -19 -12 -43 -27 -53 -33 -10 -6 -15 -13 -12 -16 8 -8 -88 -98
-98 -92 -4 3 -8 -1 -8 -9 0 -8 -9 -22 -20 -32 -11 -10 -20 -13 -20 -7 0 7 3
12 8 12 4 0 12 11 19 25 12 28 2 33 -21 10 -9 -9 -17 -11 -21 -5 -3 5 -2 10 4
10 5 0 24 12 41 27 26 21 33 24 40 12 5 -7 12 -10 17 -6 4 5 2 12 -5 16 -7 4
-10 15 -6 24 9 24 27 21 19 -3 -7 -23 7 -27 25 -5 9 11 8 18 -8 35 -13 14 -22
18 -27 11 -3 -6 -11 -11 -16 -11 -17 0 1 19 32 35 29 15 29 15 26 -7 -2 -13
-2 -17 0 -10 5 15 19 16 28 2 9 -15 25 -2 19 14 -3 8 2 16 13 18 10 3 -57 5
-149 7 l-168 2 0 -94 0 -95 -47 -38 c-27 -21 -54 -44 -61 -51 -38 -37 -82 -64
-93 -57 -7 4 -9 3 -5 -4 4 -6 -31 -38 -86 -76 -106 -75 -106 -75 -107 32 -1
41 3 62 11 62 6 0 9 2 6 5 -3 3 46 58 108 123 103 107 130 142 105 142 -5 0
-14 -7 -22 -16 -7 -8 -34 -26 -60 -40 -26 -13 -50 -28 -54 -33 -7 -13 -94 -56
-99 -50 -3 3 -6 46 -7 97 l-3 92 -97 0 -97 0 5 -42 c3 -24 12 -52 19 -63 8
-11 14 -34 14 -51 0 -32 -1 -33 -68 -48 -38 -8 -95 -18 -128 -22 -74 -8 -105
-23 -49 -24 22 0 67 4 100 9 33 6 74 12 92 14 17 3 37 8 42 12 6 3 11 3 11 -2
1 -10 8 -101 15 -177 4 -52 3 -57 -13 -51 -37 16 -49 15 -106 -9 l-60 -24 -55
37 c-100 68 -164 94 -321 132 -89 22 -301 17 -379 -9 -36 -12 -68 -19 -73 -16
-4 3 -8 1 -8 -4 0 -9 -84 -54 -96 -52 -4 1 -10 -3 -13 -8 -9 -14 -123 -102
-133 -102 -10 0 -10 11 1 29 6 9 10 10 16 2 4 -8 13 -3 26 13 11 14 32 31 47
38 14 7 41 33 60 58 19 25 45 59 59 75 37 45 73 135 54 135 -6 0 -11 -6 -11
-13 0 -18 -80 -137 -92 -137 -6 0 -8 11 -4 28 11 43 6 113 -10 160 -7 23 -14
59 -14 79 l0 36 -167 -5 c-159 -5 -313 -28 -313 -47 0 -21 150 -45 285 -47
l139 -1 13 -29 c23 -55 7 -198 -20 -176 -8 6 -35 -1 -82 -23 -83 -38 -241 -89
-272 -88 -13 0 -21 -3 -18 -7 3 -5 -3 -9 -12 -9 -30 0 -103 -17 -200 -45 -141
-40 -162 -40 -287 6 -103 37 -113 39 -155 28 -26 -7 -55 -15 -66 -20 -11 -4
-48 -17 -83 -28 -54 -18 -63 -18 -58 -5 4 10 2 13 -8 10 -17 -7 -59 21 -51 34
3 5 0 6 -8 4 -17 -7 -81 71 -71 87 4 7 3 8 -4 4 -7 -4 -14 4 -18 21 -4 15 -17
51 -30 78 -12 28 -24 64 -27 81 -3 17 -12 45 -21 62 -9 17 -16 37 -16 45 0 38
-79 85 -103 60z m3513 -88 c-7 -8 -17 -15 -22 -15 -11 0 14 29 26 30 5 0 3 -7
-4 -15z m-1856 -67 c10 -54 -12 -166 -34 -178 -17 -9 -17 -8 -4 19 32 65 36
144 9 216 l-7 20 14 -20 c8 -11 18 -37 22 -57z m1811 27 c-11 -8 -25 -19 -32
-24 -8 -8 -11 -5 -10 8 0 10 6 17 13 14 7 -2 15 0 19 6 3 6 12 11 18 11 7 0 3
-7 -8 -15z m-70 -45 c-3 -5 -11 -10 -16 -10 -6 0 -7 5 -4 10 3 6 11 10 16 10
6 0 7 -4 4 -10z m43 -20 c3 -7 0 -10 -7 -6 -14 9 -14 -7 0 -21 7 -7 1 -7 -24
0 l-34 11 21 18 c23 19 37 19 44 -2z m-58 -42 c0 16 12 15 35 -2 17 -12 15
-13 -24 -11 -38 2 -44 -1 -52 -24 -9 -26 -46 -57 -56 -47 -11 11 7 35 22 30
11 -4 15 0 15 15 0 19 -3 20 -20 11 -12 -7 -20 -7 -20 -1 0 5 9 13 20 16 11 4
18 10 15 15 -3 4 5 6 17 4 13 -2 17 -2 10 2 -6 3 -10 10 -6 15 3 5 14 -1 24
-13 11 -13 19 -17 20 -10z m-11 -48 c4 0 12 5 19 12 6 6 14 9 17 7 2 -3 -8
-16 -23 -30 l-28 -24 0 35 c-1 19 1 27 3 18 3 -10 8 -18 12 -18z m-104 -11
c11 -17 -1 -21 -15 -4 -8 9 -8 15 -2 15 6 0 14 -5 17 -11z m-1095 -19 c81 -12
227 -59 300 -96 59 -30 186 -154 217 -211 10 -19 23 -31 30 -28 7 2 13 0 13
-5 0 -6 -4 -10 -9 -10 -6 0 -1 -20 10 -44 11 -25 29 -96 40 -158 21 -118 29
-142 29 -90 0 21 7 35 21 42 19 11 20 9 13 -27 -3 -21 -12 -47 -19 -58 -7 -11
-10 -34 -8 -52 4 -27 1 -34 -25 -47 -73 -38 -313 -86 -427 -86 l-70 0 1 223
c0 254 5 292 37 283 57 -16 68 -14 28 4 -44 20 -44 20 -38 63 8 57 38 125 70
160 14 15 22 27 18 27 -13 0 -68 -65 -75 -88 -6 -18 -14 -20 -69 -16 l-62 3
55 -10 c30 -6 56 -12 58 -14 1 -1 -2 -14 -7 -28 -8 -20 -21 -28 -66 -38 -31
-7 -63 -18 -73 -25 -15 -11 -14 -13 11 -23 16 -6 40 -11 55 -12 24 0 25 -1 7
-9 -18 -7 -17 -8 8 -11 l28 -4 0 -172 c0 -95 -1 -207 -1 -248 l0 -75 -54 0
-53 0 -6 43 c-9 63 -64 201 -91 226 -18 17 -51 26 -152 41 -153 23 -186 32
-230 62 -28 19 -34 29 -34 60 0 43 7 49 80 64 l55 11 -40 19 c-22 10 -43 19
-47 20 -5 1 -12 2 -17 3 -12 1 22 109 59 186 40 84 94 132 157 140 26 3 55 8
63 9 33 7 149 5 210 -4z m1040 -27 c-8 -3 -26 -17 -39 -30 -29 -26 -37 -28
-47 -11 -5 7 -2 9 8 5 10 -3 25 4 39 19 12 13 30 24 38 23 13 0 14 -2 1 -6z
m113 0 c-7 -2 -21 -2 -30 0 -10 3 -4 5 12 5 17 0 24 -2 18 -5z m-3183 -7 c0
-3 -4 -8 -10 -11 -5 -3 -10 -1 -10 4 0 6 5 11 10 11 6 0 10 -2 10 -4z m1622
-48 c-16 -24 -42 -72 -57 -107 -23 -50 -36 -67 -62 -77 -49 -21 -61 -17 -25 9
17 12 57 62 88 112 48 78 69 104 82 105 2 0 -10 -19 -26 -42z m-1607 -38 c3
-5 1 -10 -4 -10 -6 0 -11 5 -11 10 0 6 2 10 4 10 3 0 8 -4 11 -10z m3244 -88
c58 -36 132 -80 163 -99 31 -19 61 -40 67 -47 14 -17 152 -438 154 -472 2 -24
-4 -31 -43 -50 -25 -13 -50 -23 -56 -23 -7 -1 -9 36 -6 109 5 133 0 154 -35
169 -23 10 -32 25 -51 84 -13 40 -29 80 -37 90 -12 17 -15 16 -49 -14 l-36
-31 -53 39 c-28 21 -71 51 -94 66 -23 16 -50 38 -60 50 l-18 22 23 -19 c12
-11 24 -17 27 -14 8 8 -42 38 -57 35 -7 -2 -9 -2 -5 1 5 2 1 12 -9 23 -9 10
-14 25 -11 33 3 8 -3 22 -14 32 -11 10 -16 20 -11 23 4 3 21 23 36 43 32 43
17 48 175 -50z m-639 42 c13 -33 13 -47 0 -39 -5 3 -10 18 -10 32 0 18 -4 24
-15 19 -8 -3 -15 -1 -15 4 0 21 31 9 40 -16z m-50 6 c0 -5 -5 -10 -11 -10 -5
0 -7 5 -4 10 3 6 8 10 11 10 2 0 4 -4 4 -10z m115 -32 c21 -9 35 -28 21 -28
-2 0 -12 -3 -22 -7 -13 -5 -15 -3 -9 7 5 8 1 18 -10 27 -23 16 -14 17 20 1z
m-84 -53 c10 -4 27 -2 37 4 13 7 19 7 19 -2 0 -7 -15 -13 -33 -14 -24 -2 -37
3 -48 19 -9 12 -16 27 -15 33 0 5 5 0 11 -12 6 -13 19 -25 29 -28z m169 9 c0
-2 -7 -4 -15 -4 -8 0 -15 4 -15 10 0 5 7 7 15 4 8 -4 15 -8 15 -10z m105 -12
c-3 -3 -11 0 -18 7 -9 10 -8 11 6 5 10 -3 15 -9 12 -12z m190 8 c3 -6 -1 -7
-9 -4 -18 7 -21 14 -7 14 6 0 13 -4 16 -10z m-268 -16 c-3 -3 -12 -4 -19 -1
-8 3 -5 6 6 6 11 1 17 -2 13 -5z m-103 -19 c-4 -9 0 -15 10 -15 9 0 16 7 16
15 0 19 34 20 49 1 9 -11 6 -15 -14 -20 -14 -4 -24 -10 -21 -14 2 -4 -4 -9
-15 -9 -10 -1 -19 2 -19 8 0 5 -6 9 -14 9 -9 0 -12 7 -9 20 3 11 9 20 14 20 5
0 6 -7 3 -15z m132 -12 c-2 -12 -12 -18 -30 -19 l-26 -1 25 4 c22 4 24 7 14
19 -9 11 -8 14 4 14 9 0 14 -7 13 -17z m-1306 -1 c0 -23 -28 -44 -48 -38 -30
10 -28 22 6 34 35 13 42 14 42 4z m1345 -2 c3 -6 -1 -7 -9 -4 -18 7 -21 14 -7
14 6 0 13 -4 16 -10z m35 -52 c0 -5 -11 -1 -25 8 -14 9 -25 18 -25 20 0 2 11
-2 25 -8 14 -6 25 -15 25 -20z m110 -30 c22 -13 40 -26 40 -30 0 -10 -89 35
-90 45 0 11 8 9 50 -15z m-61 -17 c-8 -3 -16 -15 -17 -26 -2 -11 -6 -22 -9
-25 -3 -3 -3 5 0 18 3 13 1 22 -6 22 -6 0 -2 6 8 14 11 8 24 12 29 8 5 -3 3
-8 -5 -11z m-1458 -42 c-8 -22 -10 -22 -16 -5 -5 11 -3 21 6 26 19 12 21 7 10
-21z m1485 12 c23 4 32 -3 39 -28 15 -51 14 -53 -4 -41 -20 12 -61 69 -61 84
0 5 4 3 9 -4 4 -7 12 -12 17 -11z m130 -39 c-6 -5 -56 21 -56 29 0 5 13 0 29
-9 16 -9 28 -18 27 -20z m-147 -22 c0 -9 -4 -8 -9 5 -5 11 -9 27 -9 35 0 9 4
8 9 -5 5 -11 9 -27 9 -35z m190 21 c-8 -2 -7 -7 2 -13 11 -8 11 -9 -1 -5 -8 2
-14 10 -12 16 1 6 -2 11 -8 11 -5 0 -10 5 -10 10 0 6 8 5 20 -2 11 -7 15 -15
9 -17z m286 -65 c14 -38 23 -71 21 -74 -3 -3 -8 1 -11 9 -25 68 -35 90 -30 67
3 -14 8 -34 11 -43 6 -15 4 -16 -15 -5 -13 6 -20 14 -17 17 3 3 -1 21 -10 41
-16 39 -12 51 10 33 12 -10 13 -8 9 11 -11 42 6 13 32 -56z m-355 54 c8 -5 11
-10 5 -10 -5 0 -17 5 -25 10 -8 5 -10 10 -5 10 6 0 17 -5 25 -10z m50 -26 c0
-8 -4 -12 -10 -9 -5 3 -10 10 -10 16 0 5 5 9 10 9 6 0 10 -7 10 -16z m125 -22
c-6 -7 -45 9 -45 18 0 4 11 3 24 -3 14 -7 23 -13 21 -15z m120 -2 c9 -16 12
-30 8 -30 -16 0 -30 15 -37 38 -11 33 11 27 29 -8z m-408 -12 c-3 -8 -6 -5 -6
6 -1 11 2 17 5 13 3 -3 4 -12 1 -19z m285 -30 c-2 -9 -11 -23 -19 -30 -13 -10
-14 -7 -10 20 3 18 1 32 -4 32 -5 0 -9 4 -9 9 0 5 11 4 24 -2 15 -7 21 -17 18
-29z m-182 11 c0 -5 -4 -9 -10 -9 -5 0 -10 7 -10 16 0 8 5 12 10 9 6 -3 10
-10 10 -16z m245 10 c11 -16 2 -17 -25 -2 -24 12 -24 13 -3 13 12 0 25 -5 28
-11z m-458 -15 c5 -14 -58 -26 -71 -14 -4 5 -5 13 -1 20 9 14 67 9 72 -6z
m493 -9 c0 -8 -9 -19 -20 -25 -14 -7 -20 -7 -20 0 0 5 -4 10 -10 10 -15 0 -12
-17 7 -40 18 -21 49 -28 38 -9 -4 6 0 9 8 7 9 -2 22 5 30 16 13 17 15 17 43 3
16 -9 25 -16 21 -17 -5 0 -16 4 -25 9 -12 6 -22 4 -31 -7 -13 -14 -13 -15 6
-10 15 4 20 1 18 -11 -1 -9 5 -19 14 -23 9 -3 -2 -5 -24 -4 -24 2 -39 7 -37
14 2 14 -5 14 -33 2 l-20 -9 20 -1 c20 -1 20 -1 1 -15 -24 -18 -40 -19 -29 -2
14 22 12 39 -3 33 -9 -3 -12 -1 -9 4 3 6 -1 10 -9 10 -20 0 -20 29 -2 53 9 12
16 14 21 8 9 -16 25 -13 25 4 0 8 5 15 10 15 6 0 10 -7 10 -15z m-333 -17 c-3
-8 -6 -5 -6 6 -1 11 2 17 5 13 3 -3 4 -12 1 -19z m355 -10 c-7 -7 -12 -8 -12
-2 0 6 3 14 7 17 3 4 9 5 12 2 2 -3 -1 -11 -7 -17z m-502 -3 c0 -8 -4 -15 -9
-15 -5 0 -23 -3 -40 -6 -24 -5 -31 -3 -31 9 0 14 19 22 63 26 9 0 17 -6 17
-14z m180 -15 c0 -25 -4 -30 -22 -30 -21 1 -22 2 -5 14 9 7 17 21 17 30 0 9 2
16 5 16 3 0 5 -13 5 -30z m-166 -25 c6 -17 -28 -35 -65 -35 -29 0 -20 32 11
41 39 11 47 10 54 -6z m371 5 c3 -5 -1 -10 -10 -10 -9 0 -13 5 -10 10 3 6 8
10 10 10 2 0 7 -4 10 -10z m232 -14 c4 -5 3 -6 -4 -3 -6 4 -13 1 -16 -5 -3
-10 -9 -9 -21 3 -16 15 -16 16 8 15 14 -1 29 -6 33 -10z m-457 -33 c0 -19 -3
-24 -10 -17 -6 6 -8 18 -4 27 9 24 14 21 14 -10z m491 -20 c-3 -2 -4 -28 -3
-58 3 -45 1 -55 -12 -55 -13 0 -16 10 -14 48 l1 47 7 -45 7 -45 1 48 c2 34 -2
47 -12 47 -8 0 -16 7 -20 15 -3 8 -1 15 4 15 6 0 10 -4 10 -10 0 -5 5 -10 11
-10 6 0 9 6 6 14 -3 8 -3 17 1 21 3 3 9 -2 13 -12 3 -10 4 -19 0 -20z m-521
17 c0 -5 -5 -10 -11 -10 -5 0 -7 5 -4 10 3 6 8 10 11 10 2 0 4 -4 4 -10z m375
-10 c3 -6 -1 -7 -9 -4 -9 3 -16 2 -16 -4 0 -14 -43 -23 -55 -11 -7 7 -4 8 8 4
9 -4 17 -3 17 3 0 9 15 16 42 21 4 0 10 -3 13 -9z m-494 -37 c47 -52 139 -182
139 -197 0 -19 -95 -33 -114 -17 -9 8 -33 8 -77 2 -57 -8 -66 -7 -84 10 -17
17 -18 21 -5 29 8 6 26 13 40 16 14 3 34 9 45 14 16 7 13 8 -10 4 l-30 -5 25
16 c28 18 22 18 -63 -6 -55 -15 -55 -25 0 -102 35 -48 35 -48 34 -150 -2 -122
-17 -215 -38 -239 -9 -10 -41 -27 -71 -38 -64 -24 -66 -23 -83 58 -15 75 2
225 32 284 20 37 47 116 49 141 1 16 -22 5 -58 -28 -38 -33 -45 -49 -78 -167
-8 -32 -17 -58 -20 -58 -3 0 -18 16 -35 35 -37 42 -60 44 -144 13 -43 -15 -84
-22 -144 -22 -84 -1 -84 -1 -92 26 -7 26 11 131 24 145 7 6 144 27 249 38 37
3 114 20 170 37 57 16 119 31 138 33 40 2 120 24 134 36 5 4 -18 2 -50 -6 -32
-7 -60 -12 -62 -10 -2 1 23 12 55 24 55 20 47 22 -23 6 -26 -6 -32 -4 -36 12
-9 33 31 71 87 81 28 5 55 10 61 11 5 0 21 -11 35 -26z m189 4 c11 -5 9 -6 -4
-4 -11 1 -21 9 -23 17 -3 10 -2 11 4 4 4 -6 15 -14 23 -17z m-40 -18 c0 -14
-17 -10 -23 5 -4 10 -1 13 9 9 7 -3 14 -9 14 -14z m107 15 c-3 -3 -12 -4 -19
-1 -8 3 -5 6 6 6 11 1 17 -2 13 -5z m44 -3 c-11 -7 -9 -10 8 -16 13 -4 25 -4
28 -1 4 3 0 6 -8 6 -11 0 -11 2 1 10 8 5 20 10 25 10 6 0 3 -5 -5 -10 -22 -14
5 -13 33 1 14 7 18 7 12 1 -16 -17 -115 -51 -115 -40 0 6 -11 7 -25 4 -14 -4
-25 -2 -25 4 0 5 12 10 26 10 14 0 23 4 20 9 -6 9 8 19 29 20 6 0 4 -3 -4 -8z
m-2088 -73 c32 -87 33 -107 7 -150 -11 -18 -20 -46 -20 -61 0 -15 -6 -30 -12
-32 -7 -2 -157 -9 -333 -14 -245 -8 -322 -7 -330 2 -18 20 -80 286 -70 296 6
5 143 12 305 16 162 4 297 9 299 11 2 2 32 4 65 4 l61 0 28 -72z m2302 42 c8
-13 -15 -13 -35 0 -12 8 -11 10 7 10 12 0 25 -4 28 -10z m-83 -17 c-6 -2 -10
-8 -7 -12 2 -5 -10 -8 -27 -9 l-32 -1 25 14 c13 7 31 13 39 13 10 0 11 -1 2
-5z m43 -13 c-27 -12 -43 -12 -25 0 8 5 22 9 30 9 10 0 8 -3 -5 -9z m72 -16
c-3 -3 -12 -4 -19 -1 -8 3 -5 6 6 6 11 1 17 -2 13 -5z m-347 -8 c0 -2 -7 -7
-16 -10 -8 -3 -12 -2 -9 4 6 10 25 14 25 6z m418 -22 c-29 -17 -41 -17 -32 -3
5 9 -4 10 -32 5 -27 -5 -34 -4 -24 3 8 5 36 9 63 9 45 -1 47 -2 25 -14z m-313
-14 c3 -5 -3 -10 -15 -10 -12 0 -18 5 -15 10 3 6 10 10 15 10 5 0 12 -4 15
-10z m262 -6 c-3 -3 -12 -4 -19 -1 -8 3 -5 6 6 6 11 1 17 -2 13 -5z m-37 -13
c0 -5 -9 -11 -21 -14 -16 -4 -18 -3 -8 9 13 16 29 19 29 5z m-1194 -34 c8 -24
3 -28 -45 -34 -39 -5 -41 -4 -41 20 0 19 6 27 23 30 41 7 57 3 63 -16z m934
13 c0 -5 -5 -10 -11 -10 -5 0 -7 5 -4 10 3 6 8 10 11 10 2 0 4 -4 4 -10z m210
2 c0 -15 -52 -34 -63 -23 -7 7 -6 12 4 15 8 2 21 7 29 9 23 8 30 8 30 -1z
m127 -24 c-3 -7 -5 -2 -5 12 0 14 2 19 5 13 2 -7 2 -19 0 -25z m-367 18 c0 -3
-4 -8 -10 -11 -5 -3 -10 -1 -10 4 0 6 5 11 10 11 6 0 10 -2 10 -4z m160 -16
c0 -5 -4 -10 -10 -10 -5 0 -10 5 -10 10 0 6 5 10 10 10 6 0 10 -4 10 -10z
m167 -30 c3 -11 9 -17 14 -14 5 3 6 -2 3 -10 -5 -12 -9 -13 -19 -3 -7 7 -11
16 -8 21 3 4 -10 5 -28 1 -34 -6 -34 -6 -9 8 34 21 41 20 47 -3z m60 -17 c-3
-10 -5 -4 -5 12 0 17 2 24 5 18 2 -7 2 -21 0 -30z m-347 13 c0 -2 -7 -7 -16
-10 -8 -3 -12 -2 -9 4 6 10 25 14 25 6z m165 -6 c-3 -5 -12 -10 -18 -10 -7 0
-6 4 3 10 19 12 23 12 15 0z m323 -17 c33 -48 35 -59 4 -24 l-29 34 -42 -20
c-36 -18 -42 -19 -39 -5 3 18 43 42 70 42 9 0 25 -12 36 -27z m-1551 -15 c-3
-13 -9 -44 -12 -70 -5 -31 -12 -48 -21 -48 -8 0 -14 -4 -14 -10 0 -5 9 -10 20
-10 11 0 20 -5 20 -11 0 -12 -274 -3 -298 10 -8 5 8 29 52 76 l63 70 89 6 c49
3 93 6 98 7 4 1 6 -8 3 -20z m783 13 c0 -8 -12 -12 -75 -26 -11 -3 -2 4 20 14
46 22 55 24 55 12z m600 -25 c-6 -16 -15 -24 -21 -20 -7 4 -7 9 -2 13 5 3 13
15 16 25 4 10 10 17 13 14 2 -3 0 -17 -6 -32z m26 -26 c0 -22 -4 -40 -8 -40
-4 0 -8 -15 -10 -32 -2 -25 -8 -33 -24 -34 -17 -1 -20 4 -16 22 2 13 8 24 12
24 5 0 6 -10 2 -22 -3 -14 -2 -19 6 -14 7 4 12 18 12 32 0 14 -4 23 -9 19 -6
-3 -9 4 -8 15 1 11 7 20 14 20 7 0 15 11 19 25 9 35 12 31 10 -15z m142 10
l23 -30 -35 -17 c-34 -16 -37 -16 -56 2 -25 22 -26 44 -2 61 26 20 45 16 70
-16z m-398 6 c0 -8 -51 -13 -56 -5 -3 5 9 9 25 9 17 0 31 -2 31 -4z m-75 -16
c4 -6 23 -8 43 -6 l37 5 -37 -10 c-30 -9 -41 -8 -60 5 -17 13 -19 16 -6 16 9
0 20 -5 23 -10z m-35 -20 c18 -12 2 -12 -25 0 -13 6 -15 9 -5 9 8 0 22 -4 30
-9z m147 -12 c-3 -8 -6 -5 -6 6 -1 11 2 17 5 13 3 -3 4 -12 1 -19z m73 -8
c-13 -23 -33 -22 -38 3 -2 10 5 17 20 19 30 5 32 3 18 -22z m250 -30 c8 0 26
9 40 20 14 11 31 20 38 20 24 0 11 -20 -28 -45 -47 -30 -80 -26 -110 12 -34
43 -24 61 13 25 18 -18 39 -32 47 -32z m-2553 14 c-3 -3 -12 -4 -19 -1 -8 3
-5 6 6 6 11 1 17 -2 13 -5z m2017 -15 c-7 -12 -36 -11 -54 2 -12 9 -11 10 8 6
12 -3 22 -1 22 4 0 4 7 6 15 3 8 -4 12 -10 9 -15z m-2244 7 c0 -3 -4 -8 -10
-11 -5 -3 -10 -1 -10 4 0 6 5 11 10 11 6 0 10 -2 10 -4z m2137 -10 c0 -8 -6
-12 -15 -9 -11 5 -11 7 0 14 7 5 13 9 14 9 0 0 1 -6 1 -14z m247 -3 c10 -26
-6 -31 -42 -12 -32 17 -33 18 -10 22 42 8 46 7 52 -10z m-2476 0 c-10 -2 -28
-2 -40 0 -13 2 -5 4 17 4 22 1 32 -1 23 -4z m317 -3 c-3 -5 -12 -10 -18 -10
-7 0 -6 4 3 10 19 12 23 12 15 0z m2452 -12 c-3 -8 -6 -5 -6 6 -1 11 2 17 5
13 3 -3 4 -12 1 -19z m-2922 2 c13 -6 15 -9 5 -9 -8 0 -22 4 -30 9 -18 12 -2
12 25 0z m2483 -7 c12 -3 22 -1 22 6 0 6 9 11 20 11 11 0 20 -4 20 -10 0 -5 7
-10 15 -10 19 0 19 -4 -1 -42 -13 -25 -14 -32 -2 -40 9 -7 7 -8 -7 -4 -11 3
-36 2 -56 -3 l-36 -8 5 51 c5 48 4 50 -13 36 -17 -14 -18 -13 -12 2 3 9 3 19
-1 21 -4 2 0 2 8 -1 8 -2 25 -7 38 -9z m-2371 1 c-3 -3 -12 -4 -19 -1 -8 3 -5
6 6 6 11 1 17 -2 13 -5z m2303 -24 c0 -16 -4 -30 -10 -30 -5 0 -10 14 -10 30
0 17 5 30 10 30 6 0 10 -13 10 -30z m-2556 11 c3 -5 -1 -14 -8 -20 -12 -10
-13 -8 -9 8 6 23 9 25 17 12z m2926 -7 c0 -8 -4 -12 -10 -9 -5 3 -10 10 -10
16 0 5 5 9 10 9 6 0 10 -7 10 -16z m-464 -8 c26 -20 7 -40 -27 -27 -22 8 -22
10 -6 16 15 6 16 10 5 16 -7 5 -8 9 -2 9 5 0 19 -6 30 -14z m-1949 -2 c-3 -3
-12 -4 -19 -1 -8 3 -5 6 6 6 11 1 17 -2 13 -5z m732 -47 c-2 -53 -16 -108 -19
-77 -8 67 -4 130 8 130 9 0 12 -15 11 -53z m1161 43 c-8 -5 -22 -9 -30 -9 -10
0 -8 3 5 9 27 12 43 12 25 0z m606 -25 c-6 -24 -26 -36 -26 -15 0 6 5 10 10
10 6 0 10 10 10 22 0 12 3 19 6 15 4 -3 4 -18 0 -32z m-1188 -58 c3 -49 -16
-117 -33 -117 -2 0 -4 32 -4 70 1 48 -4 78 -15 95 -19 28 -2 40 29 20 15 -9
21 -25 23 -68z m772 58 c0 -14 -4 -25 -10 -25 -5 0 -10 11 -10 25 0 14 5 25
10 25 6 0 10 -11 10 -25z m-2530 11 c0 -11 -19 -15 -25 -6 -3 5 1 10 9 10 9 0
16 -2 16 -4z m183 -3 c-7 -2 -19 -2 -25 0 -7 3 -2 5 12 5 14 0 19 -2 13 -5z
m160 0 c-7 -2 -21 -2 -30 0 -10 3 -4 5 12 5 17 0 24 -2 18 -5z m104 1 c-3 -3
-12 -4 -19 -1 -8 3 -5 6 6 6 11 1 17 -2 13 -5z m613 -4 c0 -5 7 -7 15 -4 9 4
15 1 15 -7 0 -7 7 -21 17 -31 9 -10 11 -18 5 -18 -6 0 -19 -3 -29 -6 -16 -5
-16 -4 1 10 17 14 18 16 3 16 -9 0 -17 5 -17 11 0 5 -5 7 -11 3 -8 -4 -7 -9 2
-15 11 -7 11 -9 1 -9 -7 0 -10 -4 -7 -10 3 -5 1 -10 -5 -10 -7 0 -9 7 -6 16 5
12 2 15 -9 10 -9 -3 -13 -2 -10 3 3 6 -2 14 -11 19 -9 5 -14 14 -10 21 9 13
56 15 56 1z m1930 6 c0 -2 -7 -7 -16 -10 -8 -3 -12 -2 -9 4 6 10 25 14 25 6z
m-650 -16 c0 -5 -5 -10 -11 -10 -5 0 -7 -4 -4 -10 7 -11 -8 -14 -18 -3 -8 7
11 33 24 33 5 0 9 -4 9 -10z m-2072 -7 c-21 -2 -55 -2 -75 0 -21 2 -4 4 37 4
41 0 58 -2 38 -4z m125 0 c-7 -2 -21 -2 -30 0 -10 3 -4 5 12 5 17 0 24 -2 18
-5z m54 1 c-3 -3 -12 -4 -19 -1 -8 3 -5 6 6 6 11 1 17 -2 13 -5z m1923 -9
c-10 -12 -3 -14 47 -11 32 2 49 1 39 -1 -19 -5 -18 -6 5 -20 13 -8 16 -12 6
-9 -10 3 -28 6 -38 6 -11 0 -17 4 -14 10 4 6 -5 8 -22 5 -15 -3 -35 -1 -43 5
-13 9 -13 11 0 20 22 15 34 12 20 -5z m-764 -7 c-10 17 9 15 24 -2 6 -8 19
-12 28 -10 13 5 13 2 -3 -10 -13 -11 -30 -14 -55 -10 -27 4 -32 3 -20 -6 12
-9 10 -10 -10 -4 -53 14 -57 22 -20 38 27 11 38 12 49 3 12 -9 13 -9 7 1z
m904 -18 c0 -5 -7 -7 -15 -4 -8 4 -15 8 -15 10 0 2 7 4 15 4 8 0 15 -4 15 -10z
m-156 -47 c67 -46 81 -78 72 -165 -8 -70 -11 -77 -80 -178 -54 -80 -100 -168
-111 -212 -6 -25 -4 -28 16 -28 44 0 65 11 83 42 10 16 30 44 46 61 32 37 53
112 51 182 0 28 3 64 7 80 l9 30 17 -32 c15 -30 15 -38 2 -97 -25 -105 -84
-249 -118 -285 -18 -19 -54 -44 -82 -56 -28 -12 -62 -27 -76 -34 -24 -11 -24
-11 7 -7 18 3 52 15 75 26 24 12 67 30 95 40 79 28 170 87 198 128 13 20 23
37 21 39 -2 2 -29 -21 -60 -53 -32 -31 -60 -54 -63 -51 -3 3 1 13 10 21 16 17
9 74 -12 99 -7 9 -3 38 14 103 27 95 24 125 -13 168 -21 23 -8 17 59 -31 38
-27 49 -42 59 -81 13 -47 38 -89 27 -44 -8 34 6 27 67 -35 l56 -58 0 -152 c0
-157 -7 -197 -40 -220 -11 -8 -20 -20 -20 -28 0 -26 -17 -25 -121 9 -57 19
-132 40 -166 46 -35 7 -63 16 -63 19 0 4 17 15 38 24 36 16 177 113 216 149
11 10 17 20 14 24 -3 3 -38 -19 -77 -50 -40 -30 -97 -69 -129 -87 -31 -18 -63
-37 -71 -43 -8 -6 -73 -11 -155 -12 -90 -1 -166 -8 -210 -18 -100 -24 -102 -9
-7 51 72 46 106 73 93 73 -5 0 -37 -18 -70 -40 -53 -36 -66 -40 -120 -40 -107
0 -91 27 76 120 51 29 91 55 88 57 -2 3 -18 -3 -36 -12 -54 -28 -52 -12 8 52
40 43 53 63 42 65 -8 2 16 24 59 53 40 28 82 56 92 64 17 12 19 12 13 -5 -12
-33 -37 -56 -83 -76 -24 -10 -41 -21 -38 -24 11 -11 94 34 114 62 11 16 27 49
36 74 11 33 28 54 67 85 85 64 95 125 30 187 -29 27 -40 58 -21 58 6 0 35 -17
65 -37z m272 9 c-22 -5 -30 3 -21 18 5 8 11 7 22 -2 15 -12 14 -13 -1 -16z
m114 19 c0 -5 -10 -11 -22 -14 -22 -6 -22 -6 -4 8 23 17 26 18 26 6z m-215
-11 c3 -6 -1 -7 -9 -4 -18 7 -21 14 -7 14 6 0 13 -4 16 -10z m241 -15 c-36
-19 -45 -19 -20 0 10 8 26 14 34 15 8 0 2 -7 -14 -15z m-251 -47 c95 -48 235
-177 296 -273 36 -56 78 -143 52 -105 -10 14 -29 36 -43 50 -214 208 -287 274
-357 319 -46 30 -83 55 -83 56 0 8 82 -21 135 -47z m99 20 c-3 -4 -11 -5 -19
-1 -21 7 -19 12 4 10 11 0 18 -5 15 -9z m86 -3 c-30 -17 -40 -18 -40 -6 0 10
22 18 50 19 8 1 4 -5 -10 -13z m-2753 -42 c-3 -10 -5 -2 -5 17 0 19 2 27 5 18
2 -10 2 -26 0 -35z m2370 21 c20 -20 24 -31 19 -57 -4 -18 -16 -41 -27 -52
l-20 -20 12 27 c10 22 10 37 0 68 -6 22 -16 40 -21 40 -6 0 -10 5 -10 10 0 18
20 11 47 -16z m-1742 -40 c9 3 12 0 8 -10 -9 -23 -33 4 -32 35 2 26 2 26 6 -2
3 -19 9 -27 18 -23z m-801 11 c-32 -26 -75 -46 -87 -42 -6 2 14 17 43 34 55
32 80 36 44 8z m3223 19 c13 -4 20 -10 17 -15 -3 -5 3 -12 13 -16 10 -4 27
-17 38 -30 11 -13 26 -23 33 -23 7 0 12 -4 12 -9 0 -5 6 -11 14 -13 11 -2 11
-11 1 -52 -14 -53 -26 -66 -65 -66 -15 0 -32 -9 -40 -22 -8 -12 -25 -31 -36
-42 -22 -21 -19 -55 5 -71 16 -9 13 -35 -3 -35 -7 0 -20 -8 -27 -17 -11 -15
-11 -16 1 -5 8 6 22 12 32 12 17 0 17 -1 2 -25 -20 -30 -42 -32 -52 -6 -4 11
-10 20 -14 20 -5 1 -8 3 -8 6 0 3 -10 22 -22 42 -47 84 -87 167 -82 172 3 3 9
-1 14 -9 11 -17 13 -9 4 14 -3 9 -12 16 -19 16 -20 0 -30 21 -14 31 10 6 11 9
2 9 -21 0 -27 2 -45 11 -29 16 -22 25 47 64 68 37 107 42 113 13 3 -18 -42
-69 -73 -83 -19 -8 -19 -9 3 -12 12 -3 22 -9 22 -14 0 -14 47 0 94 28 23 14
33 22 23 19 -15 -5 -16 -2 -7 14 14 27 14 27 -30 56 -30 20 -37 30 -28 35 15
10 44 11 75 3z m-386 -21 c13 -16 12 -17 -3 -4 -17 13 -22 21 -14 21 2 0 10
-8 17 -17z m-2384 -35 c-3 -8 -6 -5 -6 6 -1 11 2 17 5 13 3 -3 4 -12 1 -19z
m-437 -17 c0 -16 -86 -35 -95 -21 -4 6 6 10 22 10 15 0 35 5 43 10 19 12 30
13 30 1z m850 -31 c0 -5 -5 -10 -11 -10 -5 0 -7 5 -4 10 3 6 8 10 11 10 2 0 4
-4 4 -10z m-237 -74 c-10 -5 -18 -4 -24 5 -15 23 -10 28 15 16 21 -10 22 -13
9 -21z m276 -39 c0 -27 -2 -29 -9 -12 -12 28 -12 57 0 50 6 -3 10 -21 9 -38z
m-1021 9 c2 -11 0 -16 -7 -12 -19 12 -61 -5 -61 -24 0 -11 5 -22 10 -25 6 -3
10 -28 10 -56 0 -45 2 -49 24 -49 20 0 24 -6 30 -46 10 -79 8 -124 -8 -124 -8
0 -23 -2 -33 -5 -10 -3 -4 1 12 9 l30 15 -37 1 c-46 0 -45 -3 -53 184 -7 152
-5 158 50 154 20 -2 31 -9 33 -22z m-123 -48 c2 -29 6 -105 10 -169 l6 -116
-43 -6 c-23 -3 -44 -4 -46 -3 -3 4 -9 73 -18 218 -3 60 -7 111 -7 115 -2 7 83
22 92 16 2 -1 5 -26 6 -55z m142 30 c-3 -7 -5 -2 -5 12 0 14 2 19 5 13 2 -7 2
-19 0 -25z m-277 -30 c0 -18 3 -92 7 -164 5 -116 4 -132 -11 -137 -9 -4 -16
-1 -16 6 0 7 -3 83 -6 170 -5 139 -4 157 10 157 11 0 16 -9 16 -32z m1310 -65
c22 -11 23 -13 5 -13 -30 0 -45 19 -44 55 l1 30 7 -30 c3 -17 16 -35 31 -42z
m-753 -15 c-3 -8 -6 -5 -6 6 -1 11 2 17 5 13 3 -3 4 -12 1 -19z m876 -20 c-5
-23 -5 -23 11 -3 17 19 17 19 11 -10 -3 -16 -9 -41 -12 -54 -4 -16 -1 -27 11
-33 11 -6 15 -16 10 -30 -4 -13 -2 -18 4 -14 17 10 41 -50 36 -91 -5 -43 -17
-59 -35 -48 -9 6 -7 11 6 22 16 11 16 13 3 13 -10 0 -15 7 -13 18 1 9 0 11 -2
5 -3 -7 -8 -13 -13 -13 -12 0 0 -43 15 -55 10 -9 10 -14 -1 -30 -13 -18 -14
-18 -14 6 0 13 -5 31 -10 39 -8 13 -10 12 -10 -3 0 -10 -5 -15 -10 -12 -7 4
-7 12 0 25 15 29 12 39 -15 46 -14 3 -25 11 -25 18 0 6 -5 4 -11 -4 -8 -12 -9
-10 -4 9 5 14 3 21 -3 17 -17 -11 -29 18 -27 66 2 35 -1 45 -11 41 -16 -6 -18
-19 -4 -28 6 -3 10 -11 10 -18 0 -23 -21 11 -35 56 -15 50 -5 70 17 38 10 -14
18 -17 28 -11 13 8 12 12 -5 25 -19 15 -17 16 24 9 34 -5 42 -3 36 7 -6 9 -4
11 8 6 9 -3 19 -2 22 3 10 17 13 11 8 -12z m-159 -34 c3 -8 2 -12 -4 -9 -6 3
-10 10 -10 16 0 14 7 11 14 -7z m2538 -73 c-3 -20 -8 -28 -18 -24 -17 6 -18
40 -1 46 22 9 24 7 19 -22z m-253 -12 c34 -12 37 -19 45 -123 5 -60 12 -79 60
-160 87 -147 176 -321 209 -409 34 -90 39 -177 17 -283 -11 -51 -45 -114 -65
-121 -12 -4 -45 178 -45 245 0 24 -15 91 -34 150 -48 152 -93 321 -95 360 -1
19 -9 50 -17 70 -9 21 -34 86 -55 146 -22 60 -44 115 -50 123 -14 16 -11 16
30 2z m241 -65 c0 -26 -12 -31 -28 -11 -9 11 -10 22 -3 56 3 14 31 -26 31 -45z
m-3252 1 c-3 -3 -9 2 -12 12 -6 14 -5 15 5 6 7 -7 10 -15 7 -18z m142 19 c0
-8 -19 -13 -24 -6 -3 5 1 9 9 9 8 0 15 -2 15 -3z m36 -9 c-11 -8 -25 -15 -30
-15 -6 1 0 7 14 15 32 19 40 18 16 0z m489 5 c-3 -5 -12 -10 -18 -10 -7 0 -6
4 3 10 19 12 23 12 15 0z m-943 -76 c10 -54 10 -414 0 -414 -4 0 -63 -7 -131
-15 -68 -9 -125 -14 -127 -13 -1 2 -6 101 -10 219 -5 169 -4 218 6 224 17 10
30 -12 30 -53 0 -26 4 -33 18 -30 12 2 18 15 20 48 4 50 13 60 60 60 29 0 32
-3 32 -29 0 -42 9 -61 26 -54 12 4 14 15 9 43 -5 30 -3 40 11 48 31 18 49 7
56 -34z m560 -80 c48 -48 88 -90 88 -94 0 -4 -7 -10 -15 -14 -9 -3 -15 -18
-15 -39 0 -29 -4 -35 -32 -45 -18 -6 -51 -17 -73 -25 -28 -11 -44 -12 -52 -5
-21 17 -15 25 38 47 70 31 56 37 -16 7 -44 -18 -65 -22 -83 -15 -43 16 -48 9
-7 -10 48 -21 75 -57 65 -86 -6 -16 -8 -14 -13 13 -9 45 -46 65 -122 66 -76 1
-89 -9 -161 -116 -67 -100 -85 -109 -218 -106 l-108 2 -24 -29 c-13 -17 -22
-35 -19 -42 2 -7 0 -15 -5 -18 -15 -9 -12 22 5 55 22 43 44 50 147 48 122 -2
148 11 223 117 32 44 63 83 69 87 8 6 8 8 -1 8 -6 0 -25 -16 -42 -37 l-30 -36
-60 52 -61 53 0 69 c0 74 14 95 45 69 8 -7 15 -9 15 -4 1 25 18 36 39 25 17
-10 22 -9 27 4 4 9 13 14 22 10 8 -3 21 3 29 15 10 14 21 18 37 14 16 -4 25 0
29 9 3 9 13 13 25 10 12 -3 22 1 25 11 4 9 18 16 34 16 15 0 36 7 47 15 24 18
31 13 148 -101z m588 82 c0 -2 -7 -9 -15 -16 -13 -11 -14 -10 -9 4 5 14 24 23
24 12z m-442 -97 c39 -7 70 -14 67 -17 -7 -7 -169 20 -180 30 -6 6 0 7 15 4
14 -3 58 -11 98 -17z m352 -97 c19 -13 43 -16 95 -14 l70 3 65 -56 c36 -31 66
-59 68 -64 1 -5 -23 -13 -55 -20 -32 -6 -85 -24 -118 -41 -62 -30 -123 -75
-114 -84 3 -3 21 8 40 24 40 33 130 75 180 84 l34 7 -25 -16 c-24 -15 -24 -16
20 -10 25 3 57 8 71 11 28 5 79 -28 79 -52 0 -8 -1 -14 -2 -14 -30 -4 -142
-51 -141 -58 2 -7 -4 -9 -13 -5 -11 4 -24 -3 -36 -18 -11 -13 -17 -18 -13 -11
11 21 -19 12 -59 -18 l-40 -30 -31 30 c-17 16 -37 30 -45 30 -26 1 59 68 123
97 35 16 53 29 44 31 -18 4 -117 -48 -152 -78 -27 -24 -59 -19 -93 13 -21 20
-38 27 -70 27 -25 0 -46 6 -54 15 -35 42 -41 45 -62 39 -11 -4 -36 -6 -53 -5
-23 1 -33 -3 -33 -12 0 -22 -58 -46 -102 -43 -50 4 -53 9 -37 47 11 27 30 40
126 86 l114 54 52 -17 c29 -9 69 -25 90 -36 21 -11 44 -17 50 -15 7 2 -15 16
-48 31 -33 15 -70 32 -82 38 -32 16 -89 5 -161 -30 -59 -29 -63 -29 -72 -12
-6 10 -10 21 -10 24 0 10 125 66 149 66 14 1 51 7 81 15 63 16 134 11 170 -13z
m-725 -111 c-14 -14 -115 -52 -115 -44 0 4 10 17 22 30 15 17 33 23 62 23 25
0 36 -4 31 -9z m75 -16 c10 -12 5 -18 -36 -36 -27 -12 -79 -32 -116 -44 -66
-23 -68 -23 -68 -4 0 19 27 35 135 78 61 24 69 25 85 6z m1965 -32 c4 -21 9
-105 11 -187 3 -109 8 -155 18 -171 l15 -23 -97 -6 c-53 -4 -127 -9 -164 -12
-65 -6 -68 -5 -68 16 0 12 -12 36 -26 53 -24 28 -26 36 -20 92 4 33 11 80 16
105 5 25 12 57 15 71 2 15 13 29 22 32 10 3 38 13 63 23 53 20 144 42 181 43
23 1 28 -4 34 -36z m-978 1 c-3 -3 -12 -4 -19 -1 -8 3 -5 6 6 6 11 1 17 -2 13
-5z m-1004 -100 c-24 -14 -43 -32 -43 -40 0 -17 40 -44 83 -55 27 -7 25 -8
-17 -5 -63 5 -94 33 -81 72 7 17 22 31 45 39 55 20 59 16 13 -11z m1119 -19
c3 -3 -10 -48 -29 -99 l-35 -93 -67 -23 c-36 -13 -71 -25 -78 -27 -6 -3 -14 4
-17 15 -4 11 -23 36 -43 57 l-36 37 24 20 c92 72 255 138 281 113z m-1404 -90
c-5 -43 -29 -52 -77 -30 -23 10 -41 21 -41 25 0 12 104 49 113 40 5 -4 7 -20
5 -35z m480 38 c-10 -2 -26 -2 -35 0 -10 3 -2 5 17 5 19 0 27 -2 18 -5z m-61
-9 c-3 -3 -12 -4 -19 -1 -8 3 -5 6 6 6 11 1 17 -2 13 -5z m328 -19 c14 -13 25
-20 25 -14 0 6 4 8 10 4 5 -3 7 -12 3 -20 -3 -10 1 -15 12 -15 9 0 14 -4 10
-9 -3 -5 -1 -12 5 -16 5 -3 10 -26 10 -51 0 -40 -2 -44 -23 -44 -13 0 -32 9
-43 21 -32 36 -83 51 -152 46 -55 -4 -64 -2 -77 16 -29 41 -9 107 23 75 7 -7
16 -6 30 1 11 6 33 11 49 11 15 0 35 5 43 10 25 16 50 11 75 -15z m365 -15 c0
-5 -9 -14 -20 -20 -24 -13 -26 -7 -4 14 18 18 24 20 24 6z m-423 -106 c-3 -3
-12 -4 -19 -1 -8 3 -5 6 6 6 11 1 17 -2 13 -5z m-18 -15 c17 -6 31 -17 31 -25
0 -8 9 -23 20 -34 11 -11 20 -28 20 -37 1 -17 1 -17 14 0 27 35 47 16 25 -24
-9 -18 -12 -19 -27 -6 -9 8 -40 26 -68 40 -53 27 -79 27 -120 0 -42 -27 -48
27 -7 69 29 30 60 35 112 17z m87 -31 c13 -43 -17 -34 -39 11 -15 29 -14 29 9
19 13 -6 26 -20 30 -30z m574 22 c0 -5 -16 -17 -37 -25 -20 -8 -34 -18 -30
-21 3 -3 14 -1 25 5 32 17 34 14 28 -31 -6 -45 -28 -151 -32 -156 -1 -2 -20 1
-41 7 -32 9 -49 7 -96 -9 -32 -11 -82 -20 -116 -20 l-60 0 -26 56 -27 56 22
23 c12 13 30 22 41 20 34 -7 140 -48 145 -57 3 -4 20 7 37 24 18 18 46 43 62
56 17 13 22 21 13 18 -25 -8 -30 9 -9 28 30 27 101 45 101 26z m-490 -52 c0
-5 17 -16 38 -25 20 -8 39 -17 41 -19 6 -6 -27 -34 -40 -34 -9 0 -10 -3 -2
-11 5 -5 8 -21 6 -34 l-5 -23 -36 21 c-46 26 -50 32 -44 64 l5 26 18 -24 c13
-17 19 -19 19 -9 0 25 -29 60 -51 60 -18 0 -25 11 -14 22 8 8 65 -4 65 -14z
m50 12 c-8 -5 -19 -10 -25 -10 -5 0 -3 5 5 10 8 5 20 10 25 10 6 0 3 -5 -5
-10z m45 -20 c3 -5 1 -10 -4 -10 -6 0 -11 5 -11 10 0 6 2 10 4 10 3 0 8 -4 11
-10z m-10 -140 c22 -43 18 -52 -11 -25 -16 15 -24 31 -20 40 8 21 13 19 31
-15z"/>
<path d="M3280 3476 c0 -2 8 -10 18 -17 15 -13 16 -12 3 4 -13 16 -21 21 -21
13z"/>
<path d="M3597 3282 c-3 -4 -4 -17 -2 -28 2 -10 4 -24 4 -30 1 -6 10 -21 20
-33 l19 -22 6 28 c8 37 -7 87 -26 91 -9 2 -19 -1 -21 -6z"/>
<path d="M2880 3390 c0 -5 5 -10 11 -10 5 0 7 5 4 10 -3 6 -8 10 -11 10 -2 0
-4 -4 -4 -10z"/>
<path d="M3523 3024 c0 -16 13 -19 21 -5 3 5 0 11 -7 14 -8 3 -14 -1 -14 -9z"/>
<path d="M3318 2913 c7 -3 16 -2 19 1 4 3 -2 6 -13 5 -11 0 -14 -3 -6 -6z"/>
<path d="M1691 2484 c0 -11 3 -14 6 -6 3 7 2 16 -1 19 -3 4 -6 -2 -5 -13z"/>
<path d="M2719 1773 c-13 -17 -13 -17 6 -3 11 8 22 16 24 17 2 2 0 3 -6 3 -6
0 -17 -8 -24 -17z"/>
<path d="M280 1925 c0 -9 5 -15 11 -13 6 2 11 8 11 13 0 5 -5 11 -11 13 -6 2
-11 -4 -11 -13z"/>
<path d="M117 2103 c-5 -8 -3 -31 10 -118 6 -37 13 -51 27 -53 26 -5 34 12 29
66 -9 102 -12 112 -38 112 -13 0 -26 -3 -28 -7z"/>
<path d="M147 1914 c-4 -4 -4 -10 -1 -15 6 -10 34 0 34 12 0 10 -24 12 -33 3z"/>
<path d="M1415 1868 c-13 -40 -13 -48 -5 -48 9 0 25 59 17 66 -2 3 -8 -6 -12
-18z"/>
<path d="M1490 1839 c0 -5 5 -7 10 -4 6 3 10 8 10 11 0 2 -4 4 -10 4 -5 0 -10
-5 -10 -11z"/>
<path d="M1442 1831 c-15 -9 -5 -41 13 -41 8 0 17 5 21 11 9 15 -18 40 -34 30z"/>
<path d="M1520 1809 c0 -5 5 -7 10 -4 6 3 10 8 10 11 0 2 -4 4 -10 4 -5 0 -10
-5 -10 -11z"/>
<path d="M240 1620 c0 -5 9 -10 20 -10 11 0 20 5 20 10 0 6 -9 10 -20 10 -11
0 -20 -4 -20 -10z"/>
<path d="M110 1599 c0 -24 23 -21 28 4 2 10 -3 17 -12 17 -10 0 -16 -9 -16
-21z"/>
<path d="M585 1480 c-3 -6 1 -7 9 -4 18 7 21 14 7 14 -6 0 -13 -4 -16 -10z"/>
<path d="M1440 1521 c0 -5 17 -12 38 -16 38 -6 81 -37 101 -72 5 -10 12 -15
16 -12 9 9 -43 68 -74 83 -37 19 -81 28 -81 17z"/>
<path d="M311 3833 c0 -87 4 -167 9 -178 5 -12 9 49 9 158 1 112 -3 177 -9
177 -6 0 -10 -59 -9 -157z"/>
<path d="M416 3948 c14 -150 36 -248 55 -248 12 0 12 3 -7 61 -22 65 -14 160
15 200 l22 29 -45 0 -45 0 5 -42z"/>
<path d="M1875 3953 c-4 -21 -20 -73 -37 -116 -16 -43 -28 -80 -25 -83 6 -7
47 64 47 81 0 8 9 37 20 65 21 54 26 90 11 90 -5 0 -12 -17 -16 -37z"/>
<path d="M3515 3850 c-3 -5 -1 -10 4 -10 6 0 11 5 11 10 0 6 -2 10 -4 10 -3 0
-8 -4 -11 -10z"/>
<path d="M2673 3651 c-69 -34 -89 -51 -59 -51 7 0 34 11 60 25 26 14 52 25 59
25 7 0 18 9 25 20 17 28 3 25 -85 -19z"/>
<path d="M268 2313 c7 -3 16 -2 19 1 4 3 -2 6 -13 5 -11 0 -14 -3 -6 -6z"/>
<path d="M3885 2310 c-3 -6 1 -7 9 -4 18 7 21 14 7 14 -6 0 -13 -4 -16 -10z"/>
<path d="M3830 2300 c-9 -6 -10 -10 -3 -10 6 0 15 5 18 10 8 12 4 12 -15 0z"/>
<path d="M3960 2140 c-13 -8 -13 -10 2 -10 9 0 20 5 23 10 8 13 -5 13 -25 0z"/>
<path d="M3957 2025 c-29 -85 -32 -99 -18 -91 12 8 53 134 49 153 -2 10 -16
-19 -31 -62z"/>
<path d="M3966 1901 c-22 -96 -21 -121 4 -121 19 0 20 7 20 95 0 52 -2 95 -4
95 -3 0 -12 -31 -20 -69z"/>
<path d="M335 1066 c-49 -29 -211 -117 -282 -153 -29 -15 -53 -31 -53 -36 0
-4 35 11 78 34 42 23 129 68 192 101 63 34 119 64 125 69 19 18 -21 8 -60 -15z"/>
<path d="M3515 1025 c77 -101 158 -324 173 -473 9 -84 4 -184 -12 -267 l-6
-30 15 33 c21 45 30 220 16 308 -21 137 -100 337 -169 426 -20 27 -40 48 -44
48 -4 0 8 -20 27 -45z"/>
<path d="M365 1047 c-11 -6 -31 -19 -45 -28 -14 -9 -37 -20 -50 -24 -14 -4
-38 -17 -55 -30 -16 -12 -42 -25 -57 -28 -36 -9 -88 -55 -88 -77 0 -10 11 -32
25 -48 22 -27 23 -30 7 -35 -9 -2 -24 -8 -32 -11 -9 -4 -26 4 -42 19 l-28 26
0 -226 c0 -210 1 -225 18 -225 19 0 42 -18 42 -33 0 -4 -14 -13 -30 -18 -25
-9 -30 -16 -30 -44 0 -28 3 -32 20 -28 13 3 22 -1 26 -12 8 -19 -13 -38 -33
-30 -9 3 -13 -9 -13 -40 0 -25 3 -45 6 -45 4 0 44 21 91 48 84 47 84 47 79 82
-5 34 -3 37 44 68 57 37 70 39 95 12 24 -27 39 -25 104 11 78 44 97 61 93 82
-3 16 -1 17 16 6 21 -13 20 -14 255 121 132 76 141 86 111 128 -19 27 -112
115 -127 121 -6 2 -25 18 -43 35 -17 17 -48 46 -70 64 -21 18 -60 51 -86 73
-26 22 -55 39 -65 38 -10 -2 -33 11 -52 29 -35 34 -54 38 -86 19z m185 -227
c0 -12 -28 -20 -45 -14 -18 7 -19 26 -3 42 9 9 16 8 30 -5 10 -9 18 -19 18
-23z m152 -22 c-9 -9 -15 -9 -24 1 -11 10 -10 11 5 6 10 -5 17 -2 17 6 0 7 3
9 7 6 4 -4 1 -13 -5 -19z m-244 -10 c7 -7 12 -15 12 -19 0 -15 -40 -20 -61 -8
-22 11 -22 12 -4 25 23 17 37 18 53 2z m158 -47 c-14 -13 -18 -13 -36 4 -19
17 -19 19 -2 31 14 10 20 10 35 -4 16 -14 16 -17 3 -31z m-489 -6 c0 -8 -4
-12 -9 -9 -5 3 -6 10 -3 15 9 13 12 11 12 -6z m229 -4 c24 -19 25 -20 5 -30
-25 -14 -32 -13 -55 4 -20 15 -20 15 0 30 24 18 21 18 50 -4z m188 -32 c-15
-24 -43 -28 -65 -10 l-23 18 30 16 c26 14 31 14 46 0 10 -9 15 -20 12 -24z
m-340 5 c3 -8 2 -12 -4 -9 -6 3 -10 10 -10 16 0 14 7 11 14 -7z m485 2 c18
-22 -19 -40 -44 -22 -18 13 -18 14 1 24 25 15 29 15 43 -2z m161 -21 c7 -9 8
-15 2 -15 -5 0 -12 7 -16 15 -3 8 -4 15 -2 15 2 0 9 -7 16 -15z m-405 -31 c20
-15 20 -15 1 -30 -24 -17 -28 -17 -51 0 -22 16 -14 46 12 46 10 0 27 -8 38
-16z m165 -14 c0 -4 -11 -12 -24 -18 -19 -9 -27 -8 -37 4 -13 16 -13 16 16 32
19 10 45 0 45 -18z m170 -11 c0 -11 -48 -31 -59 -25 -16 11 -13 34 6 44 16 9
53 -4 53 -19z m-477 -9 c18 -16 28 -30 22 -30 -13 0 -26 10 -49 38 -27 32 -10
27 27 -8z m210 -47 c-9 -7 -25 -13 -34 -13 -26 0 -29 23 -6 36 16 9 25 9 39 0
17 -10 17 -12 1 -23z m164 16 c14 -14 -6 -39 -30 -39 -16 0 -30 27 -21 41 7
13 38 11 51 -2z m-311 -36 c-7 -7 -26 7 -26 19 0 6 6 6 15 -2 9 -7 13 -15 11
-17z m-85 -6 c-8 -8 -14 -7 -23 2 -11 10 -9 11 6 5 15 -6 17 -4 11 6 -6 9 -4
11 4 5 9 -5 10 -10 2 -18z m312 -11 c23 -18 22 -22 -13 -36 -25 -10 -32 -10
-46 4 -18 18 -18 18 11 34 25 14 26 14 48 -2z m-152 -43 c13 -16 12 -17 -3 -4
-17 13 -22 21 -14 21 2 0 10 -8 17 -17z m-302 -212 c10 -7 8 -12 -9 -24 -24
-17 -50 -13 -50 7 0 26 31 35 59 17z"/>
<path d="M3225 780 c5 -8 18 -24 29 -37 49 -57 150 -254 165 -323 5 -25 13
-103 16 -175 6 -101 4 -143 -8 -187 -17 -67 -4 -80 15 -15 18 58 13 313 -8
387 -27 99 -77 198 -140 280 -42 55 -88 103 -69 70z"/>
<path d="M3566 650 c2 -41 6 -106 8 -145 8 -149 -20 -296 -83 -424 -21 -45
-34 -81 -29 -81 5 0 12 9 15 20 3 11 9 20 13 20 10 0 56 105 76 175 22 78 28
408 9 470 -13 39 -13 38 -9 -35z"/>
<path d="M925 530 c-33 -22 -76 -48 -95 -58 -49 -27 -235 -138 -297 -178 -29
-19 -55 -34 -58 -34 -3 0 -40 -22 -83 -48 -42 -26 -139 -84 -215 -127 -76 -44
-133 -81 -128 -83 11 -4 360 198 581 337 14 8 43 25 65 37 56 31 288 174 300
185 21 21 -13 5 -70 -31z"/>
<path d="M3360 460 c1 -3 8 -27 16 -55 l14 -50 -5 45 c-3 25 -10 49 -16 55 -5
5 -9 7 -9 5z"/>
<path d="M3149 373 c11 -16 34 -82 50 -149 17 -67 35 -132 40 -145 18 -44 11
5 -13 101 -13 52 -26 111 -30 131 -7 38 -40 89 -57 89 -5 0 -1 -12 10 -27z"/>
<path d="M3392 330 c0 -14 2 -19 5 -12 2 6 2 18 0 25 -3 6 -5 1 -5 -13z"/>
<path d="M3398 190 c-3 -63 -12 -120 -22 -142 -19 -43 -19 -48 -6 -48 15 0 50
133 49 186 -3 107 -15 110 -21 4z"/>
<path d="M3291 79 c-27 -66 -27 -79 3 -79 25 0 36 28 36 96 0 48 -14 42 -39
-17z"/>
</g>
</svg>
